<svg xmlns="http://www.w3.org/2000/svg" viewBox="0 0 500 500"><defs><style>.cls-1{fill:#fff;}.cls-2{fill:#8f3a1f;}</style></defs><g id="Layer_2" data-name="Layer 2"><g id="Layer_1-2" data-name="Layer 1"><path class="cls-1" d="M458.28,145.81c-.69,3.93-1.4,7.87-2.24,11.77-3.26,15.08-6.59,30.14-9.84,45.22a11,11,0,0,0-.22,4.07c2.2,13.18,4.66,26.31,7.64,39.34.19.83.52,1.63,1.05,3.28,4-13,7.05-25.22,10-37.51q7.64-32.08,13.41-64.53-4.46-9.88-9.73-19.3-3.56,5.49-7.28,10.87A16.6,16.6,0,0,0,458.28,145.81Z"/><path class="cls-1" d="M405.33,72.19c1.1,3.68,2.18,7.37,3.32,11a9.74,9.74,0,0,0,1.11,1.82c.67-1,1.14-1.67,1.55-2.37,3-5.09,5.93-10.23,9-15.27.05-.09.09-.18.14-.26q-5.46-5.1-11.22-9.88-1.86,5.06-3.73,10.12A7.21,7.21,0,0,0,405.33,72.19Z"/><path class="cls-1" d="M437.69,119.88c.29-.66.65-1.39.92-2.14q4-11.13,7.92-22.27-5.14-6.54-10.72-12.72c.1,12,.39,24,1,36.05C436.81,119.24,436.6,120,437.69,119.88Z"/><path class="cls-1" d="M259.61,21.37C263,27.29,277.18,46,280.86,49.27a15.86,15.86,0,0,0,.89-2.27c1.24-5.36,2.36-10.76,3.68-16.1a15.75,15.75,0,0,0,.05-7.32q-2.31-10.8-4.29-21.65Q273.95,1,266.56.56C264.24,7.52,261.93,14.44,259.61,21.37Z"/><path class="cls-1" d="M424.34,100.51c-.71-8.22-1.24-16.46-1.88-24.69a7.43,7.43,0,0,0-.7-1.72L410.29,88.22c4.73,16.3,15.08,44.23,17.92,48.16-.63-5.47-1.25-10.61-1.8-15.75C425.69,113.93,424.92,107.23,424.34,100.51Z"/><path class="cls-1" d="M253.71,12.3c.39-1.11.69-1.83.91-2.58.95-3.19,1.86-6.39,2.76-9.6C254.93.05,252.47,0,250,0c-1.52,0-3,0-4.56.06,2.35,3.58,4.59,7.24,6.9,10.86A12.13,12.13,0,0,0,253.71,12.3Z"/><path class="cls-1" d="M135.94,40.91c-5.18,5.07-9.69,9.51-14.23,13.92a3.6,3.6,0,0,0-1.18,2.94c.31,6.61.49,13.22.88,19.83q1,16.29,2.14,32.59.81,11.13,2,22.23c.91,8.91,1.94,17.81,3,26.7.81,6.7,1.76,13.38,2.68,20.07,0,.31.38.59.6.91.29-.28.6-.43.62-.62a842.77,842.77,0,0,0,4.73-100.71C137,66.41,137.15,54,135.94,40.91Z"/><path class="cls-1" d="M303.24,66.57a10.32,10.32,0,0,0-.39,6.82C305.26,82.15,307.44,91,310,99.7c2.31,7.92,5,15.74,7.57,23.74.75-.22.95-.21,1-.29.78-1.29,1.6-2.56,2.31-3.89a769.17,769.17,0,0,0,41.6-92.57A247.68,247.68,0,0,0,323,10.85a12.42,12.42,0,0,0-2.1,4.13Q313.08,41.11,303.24,66.57Z"/><path class="cls-1" d="M290.49,3.28h-.06l0,.12S290.48,3.32,290.49,3.28Z"/><path class="cls-1" d="M46.18,113.6c.43-.09.84-.08.88-.2.41-1.17.8-2.35,1.12-3.54q1.57-5.74,3.06-11.5-3.89,5.1-7.53,10.39c.15.3.29.6.43.9C44.79,111,45.52,112.32,46.18,113.6Z"/><path class="cls-1" d="M253.57,134.86a10.14,10.14,0,0,0,1,1.28c4.74-8.12,23.64-70,25.08-81.81Q268.52,43.13,257.47,32a9.86,9.86,0,0,0-1.78-1.11C248,50.42,239.63,69.27,230.36,87.77Q241.08,111.83,253.57,134.86Z"/><path class="cls-1" d="M250,23.87c-2.78-3.31-5.6-6.69-8.47-10a7.66,7.66,0,0,0-1.72-1.08,535.3,535.3,0,0,1-19.16,52.52c2.5,5.84,4.66,11.61,7.54,17.27C232.64,75.14,248.48,32.42,250,23.87Z"/><path class="cls-1" d="M458.55,261.91a9,9,0,0,0-.21,3.63c1.51,5.87,3.2,11.69,4.84,17.52a2.54,2.54,0,0,0,.46.66h0c-.86.15-1.26-.39-1.51-1.06q-1.51-4-3-8.12c-.7-1.92-1.37-3.85-2.06-5.81-1.78.38-1.62,1.94-2,3-4.27,10.73-8.3,21.56-12.66,32.25q-10.39,25.41-23.1,49.76c-.77,1.46-1.54,2.92-2.43,4.31-.17.26-.76.25-1.2.34l-.06.12-.1-.09.16,0c3.8-9,7.74-17.86,11.38-26.88,9.48-23.52,17.62-47.5,24.84-71.81a12.87,12.87,0,0,0,.07-7.6c-3-10.74-5.77-21.55-8.62-32.33a7,7,0,0,0-.31-.78c-1.16-.06-1.12.92-1.32,1.62-3.34,11.78-6.52,23.62-10,35.36-9.49,31.85-20.77,63-34.85,93.17-.7,1.5-1.42,3-2.2,4.44a4.06,4.06,0,0,1-.94,1,1.94,1.94,0,0,1-.05.2l-.08-.08.13-.12a38,38,0,0,1,1.15-4.12q9.6-24.64,17.35-49.92,11.73-38.11,19.64-77.21c1.88-9.31,3.61-18.65,5.37-28a9.27,9.27,0,0,0,.17-3.27c-.91-5.15-2-10.28-3-15.41a9.53,9.53,0,0,0-.4-1.17c-1.45.18-2,1.43-2.77,2.32A427,427,0,0,1,395,214.61a437.08,437.08,0,0,1-37.2,30.27,8.92,8.92,0,0,1-3.76,2c1.51-1.59,2.48-2.68,3.53-3.71q17.83-17.58,34-36.65A539.1,539.1,0,0,0,427.54,159a20.89,20.89,0,0,0,1.55-2.44c.2-.4,0-1,0-2-1,1.08-1.69,1.73-2.28,2.43-3.55,4.22-7.08,8.46-10.64,12.67-.49.58-.91,1.38-1.88,1.3V171l-.05-.05h.05c-.27-1.22.64-2,1.13-2.95,2.8-5.37,5.66-10.71,8.47-16.07.51-1,.89-2,1.44-3.23A525.67,525.67,0,0,1,396,90.82c-1,2-1.72,3.29-2.32,4.6C387,109.81,379.9,123.94,372,137.65A302.54,302.54,0,0,1,341.07,182c-1.52,1.79-3.07,3.55-4.66,5.26a7.34,7.34,0,0,1-1.6,1s0,0,0,.05l0,0,0,0a7,7,0,0,1,.5-1.86c14.13-24.61,24.3-50.91,33.47-77.65C374,93.69,378.42,78.36,382.68,63a10.79,10.79,0,0,0-.26-6.78c-2.66-7.57-5.08-15.22-7.59-22.84-1-.58-2-1.15-3.06-1.72-.21.42-.41.83-.59,1.23-8,17.72-16.48,35.17-25.64,52.3-7.48,14-15.26,27.77-23.57,41.27a12.32,12.32,0,0,1-.65,1,3.76,3.76,0,0,0-.64,4.21,2.52,2.52,0,0,1,0,1.1l.08,0-.09.07s0-.08,0-.11L319,131.72c-2.71,3.34-4.78,7.22-7.27,10.8s-4.76,7.09-7.2,10.6-5.11,7.2-7.72,10.75-4.95,6.86-7.82,10.07c-.66-1.13.29-1.65.68-2.24q13.33-20.19,25.18-41.29a5.07,5.07,0,0,1,.4-.72c1.67-2.18,1.67-4.29.53-6.88a396.21,396.21,0,0,1-14.93-40.7c-.37-1.17-.84-2.31-1.29-3.46,0-.07-.25-.06-.68-.16-2.43,4.64-4.09,9.7-6.29,14.51-2.29,5-4.45,10.08-6.78,15.08s-4.63,9.69-7,14.49-5,9.81-7.61,14.67-5.21,9.39-8,14.34c.5,1,1,2.11,1.6,3.13q8.48,13.71,17,27.39c.78,1.26,1.59,2.51,2.35,3.7-.21.28-.27.44-.38.49s-.22-.11-.31-.2c-.54-.62-1.11-1.22-1.6-1.88-3.93-5.32-7.89-10.62-11.76-16-2.9-4-5.68-8.12-8.52-12.19-.07-.09-.23-.13-.37-.2-.88-.08-1.12.7-1.44,1.23a320.41,320.41,0,0,1-24.52,34.79,13.63,13.63,0,0,0-.79,1.23c1.12,3.11,3.3,5.8,4.91,9.46-1.94-1.06-2.78-2.47-3.87-3.58s-2-2.15-3.19-3.4L225.41,203c-.23-.23-.35-.3-.39-.4a.49.49,0,0,1,0-.37l5.08-9.28c-2.42-3.49-5.28-6.64-7.75-10.09s-5-6.9-7.46-10.42-4.9-7.33-7.25-11.06-4.48-7.28-6.62-11-4.2-7.44-6.24-11.19-4-7.53-6-11.23c-1.74,0-1.55,2.27-3.08,2.37,0,0,0,.06,0,.09l-.1-.08h.08c-.38-1.42.41-2.62.8-3.88a4.57,4.57,0,0,0-.15-3.59c-1.78-3.57-3.5-7.18-5.26-10.76a6.13,6.13,0,0,0-.88-1.07c-4.94,13.71-9.73,27.33-14.76,40.85s-10.29,26.67-16,39.79c-1.06-.37-.63-.94-.55-1.33,2.8-14.89,5.68-29.76,8.4-44.66,1.87-10.3,3.51-20.64,5.24-31q1.89-11.2,3.72-22.42c.49-3,.89-6,1.34-9a7.89,7.89,0,0,0-.47-4q-6.69-18.23-13.31-36.47c-.17-.47-.4-.93-1-2.28-.19,1.55-.3,2.15-.33,2.75-.57,14.46-.94,28.93-1.77,43.38-.69,11.83-1.8,23.63-2.95,35.43-1,10.55-2.15,21.11-3.63,31.61-1.8,12.82-4,25.58-6.06,38.36-.56,3.4-1.24,6.77-2,10.14a19,19,0,0,0,0,7.77c1.83,9.32,3.59,18.66,5.48,28q7.74,38.09,19.2,75.21,8,25.88,17.8,51.09c.53,1.37,1,2.78,1.42,4.18l.12,0-.08.09,0-.12c-1.22-.29-1.38-1.47-1.78-2.35-3.61-7.89-7.3-15.74-10.7-23.72-11.86-27.92-21.43-56.64-29.8-85.78-2.39-8.32-4.65-16.69-7-25.06-1.23.39-1.17,1.45-1.38,2.32-3.56,15-7.63,29.87-12.46,44.53-1.72,5.23-3.56,10.41-5.42,15.59-.23.64-.19,1.65-1.23,1.74,0,0,0,.07,0,.11l-.1-.09.12,0c.41-1.84.73-3.71,1.24-5.52A607.31,607.31,0,0,0,125.37,229q.73-4.28,1.51-8.55a13.31,13.31,0,0,0-.26-5.72q-7.37-29.91-12.73-60.23c-2.58-14.51-4.82-29.08-7-43.66-1.63-11.18-2.86-22.42-4.29-33.62-.19-1.5-.48-3-.72-4.45-.37,0-.72-.19-.88-.08-4.82,3.44-9.62,6.9-14.59,10.49-.32,3.48-.66,7-1,10.58-.76,8.51-1.46,17-2.28,25.53q-1.31,13.59-2.79,27.15-1.28,11.72-2.8,23.39-1.77,13.53-3.75,27c-1.43,9.68-2.85,19.36-4.52,29q-3.37,19.53-7.15,39c-4.5,23.12-9.82,46.06-15.77,68.86a10.69,10.69,0,0,1-1.29,3c4-32.7,7.59-65.42,10.49-98.21,2.88-32.62,5.18-65.28,6.38-98.07-3.94,5.82-6.76,12.18-10.15,18.22s-6.67,12.06-10.13,18-7.2,12.07-10.9,18.25c2.5,5.72,5.89,11.07,8.92,16.77a6.09,6.09,0,0,1-3.08-2.2q-1.51-1.69-3-3.42c-.91-1-1.79-2.1-2.69-3.15s-1.79-2.05-2.91-3.33c-.79,1-1.48,1.76-2.06,2.62q-7,10.23-14,20.48a7.86,7.86,0,0,1-2.42,2.38c.29-1,.53-2,.89-2.89q5-12.91,10-25.83c.4-1,.78-2.06,1.16-3.09a2.58,2.58,0,0,0-.39-2.72,16.31,16.31,0,0,1-1-1.35q-4.53-6.64-9-13.3A248.79,248.79,0,0,0,.37,236.5L1.83,238c2.11,2.14,4.23,4.27,6.18,6.6a19.21,19.21,0,0,1-5.1-3.14c-.9-.65-1.78-1.32-2.67-2C.09,243,0,246.47,0,250,0,388.07,111.93,500,250,500S500,388.07,500,250a249.71,249.71,0,0,0-13.24-80.48c-7.73,30.28-16.93,60.14-27.26,89.67A18.7,18.7,0,0,0,458.55,261.91Z"/><path class="cls-1" d="M205.58,54c-1.4-3-2.74-6-4.14-9a8.57,8.57,0,0,0-1.08-1.4,8.44,8.44,0,0,0-.63,1.25q-4.29,15.29-8.58,30.58a5.49,5.49,0,0,0,0,3.21c1.33,4.62,2.57,9.27,3.89,13.9a12.54,12.54,0,0,0,1.13,2.11c.35-.95.59-1.45.72-2,3-11.71,6-23.43,9.12-35.13A4.91,4.91,0,0,0,205.58,54Z"/><path class="cls-1" d="M208.69,123.39c4.79-9.58,9.59-19.17,14.48-28.71a4.8,4.8,0,0,0-.09-5c-2.05-3.74-3.9-7.58-5.86-11.36a16.68,16.68,0,0,0-1.33-1.9l-16.15,31.93c1.81,5.38,3.63,10.7,5.39,16a6.69,6.69,0,0,0,1.88,3C207.56,126.08,208,124.69,208.69,123.39Z"/><path class="cls-1" d="M228,99c-.5-.89-.64-2.18-2.16-2.37-.66,1.15-1.33,2.35-2,3.53-4.75,8.07-9.48,16.15-14.28,24.19a25.4,25.4,0,0,1-2.49,3.08,10.66,10.66,0,0,0,.87,4.78c4,10.25,7.73,20.62,12,30.77,3.33,8,7.26,15.75,11,23.59a11,11,0,0,0,1.6,1.91,405.43,405.43,0,0,0,20.37-46.26c-2.29-3.78-4.51-7.26-6.55-10.85C240.12,120.64,234.08,109.82,228,99Z"/><path class="cls-1" d="M25.52,182.14c7.5-20.86,14.15-42.08,20.29-63.74q-2-3.48-3.91-7a249.27,249.27,0,0,0-26,50.72c2.52,6.28,5.16,12.51,8,18.67C24.18,181.42,24.35,182.15,25.52,182.14Z"/><path class="cls-1" d="M206,27.37c1.1,2.51,1.88,5.16,2.86,7.73a21,21,0,0,0,1.46,2.55c1.13-5.75,2.24-10.85,3.11-16,1.09-6.47,2.1-12.95,3.14-19.43q-3.45.47-6.87,1-2,8.87-4.08,17.72A9.72,9.72,0,0,0,206,27.37Z"/><path class="cls-1" d="M441.29,166.28c-.13.18-.34.35-.35.53s.22.31.36.47a5.62,5.62,0,0,0,.25-.72C441.56,166.49,441.38,166.38,441.29,166.28Z"/><path class="cls-1" d="M88.12,80.33A156.82,156.82,0,0,0,101.4,69.05a128.9,128.9,0,0,0-1.71-18.82c-.76.57-1.5,1.14-2.25,1.72q-4.66,13.27-9.3,26.55A7.37,7.37,0,0,0,88.12,80.33Z"/><path class="cls-1" d="M120.84,49c.31-.12.64-.15.79-.32q6.63-7.65,13.24-15.34a3.5,3.5,0,0,0,.76-2.7c-.06-1-.12-1.95-.17-2.92q-7.8,4-15.27,8.56c0,3.24,0,6.47,0,9.7C120.24,47,119.88,48.18,120.84,49Z"/><path class="cls-2" d="M289.34,155.62l-.81-.28H281l.12,107.93c0,13.64-2.22,24.55-6.57,32.38S264.8,308.81,258.32,312a44.4,44.4,0,0,1-20.26,4.92c-16.19,0-28.49-4.4-36.57-13.07s-12.63-22.52-13.14-40.76V211.87l-.13-56.53H183a31.4,31.4,0,0,0-13.5,3.58,15.65,15.65,0,0,0-9.6,14.89v90.77c0,20,4.64,35.18,13.78,45,9,9.61,19.28,15.92,30.7,18.78,11.14,2.66,19.91,3.95,26.8,3.95,20.2,0,35.85-6,46.51-17.9,10.46-11.65,16.11-29.08,16.8-51.8V162.5A7.06,7.06,0,0,0,289.34,155.62Z"/><path class="cls-2" d="M68.17,157.09l-.25.08a30.87,30.87,0,0,0-10.43,6.07l-.11.1a17.06,17.06,0,0,0-5.28,12.77V359.18h5.25a32.44,32.44,0,0,0,10.23-1.91,26,26,0,0,0,10.7-6.22,16.85,16.85,0,0,0,5.28-12.77V155.34H78.31A37.24,37.24,0,0,0,68.17,157.09Z"/><path class="cls-2" d="M135.65,155.34h-5.26a37.18,37.18,0,0,0-10.13,1.75l-.25.08a30.77,30.77,0,0,0-10.43,6.07l-.11.1a17,17,0,0,0-5.29,12.77V359.18H288l.57-.12a7.42,7.42,0,0,0,5.93-7.51v-6.23H135.65Z"/><path class="cls-2" d="M462.65,155.34h-13.8c-4.4,0-6.51,1.67-7.52,3.26L346,253.94v-98.6h-5.26c-4.44,0-9.36,1.31-15.46,4.12a17.51,17.51,0,0,0-10.75,16.65V359.18h5.26c4.44,0,9.36-1.3,15.46-4.11,7-3.23,10.75-9,10.75-16.79V272l8.75-8.83L417.19,351l.33.42a25.07,25.07,0,0,0,19.32,8.77,37.88,37.88,0,0,0,6.9-.72c2.6-.14,5.13-.26,7.62-.26h10.22L377.07,240.93Z"/></g></g></svg>